<?xml version="1.0" encoding="utf-8"?>
<!-- Generator: Adobe Illustrator 27.7.0, SVG Export Plug-In . SVG Version: 6.00 Build 0)  -->
<svg version="1.1" id="Layer_1" xmlns="http://www.w3.org/2000/svg" xmlns:xlink="http://www.w3.org/1999/xlink" x="0px" y="0px"
	 viewBox="0 0 698.3 425.5" style="enable-background:new 0 0 698.3 425.5;" xml:space="preserve">
<style type="text/css">
	.st0{fill:#405580;}
	.st1{fill:#BFB283;}
</style>
<g>
	<path class="st0" d="M243.8,3.1L1.7,422.5H486L243.8,3.1z M243.8,110.7l148.9,258H94.9L243.8,110.7z"/>
	<g>
		<g>
			<polygon class="st1" points="380.3,239.2 454.5,110.7 526.6,235.6 588.8,235.6 454.5,3.1 349.3,185.3 			"/>
			<polygon class="st1" points="527.8,239.7 380.6,239.7 410.3,291.2 557.3,291.2 			"/>
			<polygon class="st1" points="305.6,368.7 349.2,293.1 318.1,239.3 212.4,422.5 424.1,422.5 393,368.7 			"/>
			<polygon class="st1" points="623.2,295.2 561.1,295.2 603.5,368.7 455,368.7 486,422.5 696.7,422.5 			"/>
		</g>
	</g>
</g>
</svg>
